<?xml version="1.0" standalone="no"?>
<!DOCTYPE svg PUBLIC "-//W3C//DTD SVG 20010904//EN"
 "http://www.w3.org/TR/2001/REC-SVG-20010904/DTD/svg10.dtd">
<svg version="1.0" xmlns="http://www.w3.org/2000/svg"
 width="1848.000000pt" height="540.000000pt" viewBox="0 0 1848.000000 540.000000"
 preserveAspectRatio="xMidYMid meet">

<g transform="translate(0.000000,540.000000) scale(0.100000,-0.100000)"
fill="#000000" stroke="none">
<path d="M6815 5180 c-145 -7 -223 -22 -360 -67 -416 -136 -767 -439 -964
-832 -51 -100 -115 -287 -137 -393 -21 -110 -30 -444 -15 -560 23 -171 71
-322 161 -503 81 -162 172 -288 305 -421 132 -132 275 -235 440 -315 141 -68
233 -100 376 -127 153 -30 187 -33 337 -33 278 0 502 53 747 178 154 78 261
158 400 298 153 153 234 268 330 467 168 351 200 786 84 1162 -139 452 -488
841 -921 1028 -139 60 -315 105 -439 112 -57 4 -126 8 -154 10 -27 2 -113 0
-190 -4z m-104 -209 c24 -17 168 -133 320 -259 l276 -229 6 -129 c4 -71 7
-190 7 -264 l0 -135 108 -64 c59 -35 164 -101 233 -147 l126 -82 6 -138 c4
-75 7 -251 7 -389 l0 -252 98 -5 c113 -6 125 -10 141 -45 15 -32 6 -60 -22
-69 -36 -11 -2089 -8 -2118 4 -36 14 -43 47 -15 78 20 23 30 26 124 31 l102 6
0 116 c0 64 3 181 7 261 l6 145 35 33 c19 18 123 96 231 173 108 77 199 146
203 153 4 7 10 271 13 587 4 316 11 591 16 612 12 46 30 48 90 8z m1306 -2302
c33 -12 42 -58 15 -79 -17 -14 -62 -18 -329 -23 -692 -15 -1789 -4 -1820 18
-18 14 -21 61 -4 78 9 9 119 14 384 18 479 7 1725 -1 1754 -12z"/>
<path d="M6726 4787 c-3 -12 -6 -446 -6 -964 l0 -943 235 0 235 0 -1 778 0
777 -117 96 c-351 289 -339 280 -346 256z m184 -1047 l0 -810 -55 0 -55 0 0
810 0 810 55 0 55 0 0 -810z m200 -80 l0 -730 -57 0 -56 0 5 719 c3 396 9 724
13 730 3 6 26 11 51 11 l44 0 0 -730z"/>
<path d="M7326 3803 c-3 -3 -6 -213 -6 -465 l0 -458 175 0 175 0 0 363 0 362
-163 99 c-189 116 -173 107 -181 99z m144 -513 l0 -360 -55 0 -55 0 0 360 0
360 55 0 55 0 0 -360z m160 -55 l0 -305 -55 0 -55 0 0 305 0 305 55 0 55 0 0
-305z"/>
<path d="M6412 3483 l-172 -118 0 -242 0 -243 175 0 175 0 0 360 c0 198 -1
360 -3 360 -1 0 -80 -53 -175 -117z m138 -298 l0 -255 -55 0 -55 0 0 255 0
255 55 0 55 0 0 -255z m-160 -65 l0 -190 -55 0 -55 0 0 190 0 190 55 0 55 0 0
-190z"/>
<path d="M15450 4937 c-14 -7 -33 -27 -42 -46 -22 -45 -6 -88 43 -115 33 -18
37 -18 71 -2 63 30 77 99 29 147 -32 31 -61 36 -101 16z"/>
<path d="M17495 4938 c-31 -18 -44 -40 -45 -76 0 -70 63 -117 119 -88 45 24
65 59 57 101 -12 60 -79 93 -131 63z"/>
<path d="M18115 4938 c-74 -40 -71 -111 7 -162 53 -35 118 12 118 86 0 69 -66
109 -125 76z"/>
<path d="M530 3835 l0 -1037 418 5 c445 4 473 7 582 59 109 52 219 213 256
375 25 105 25 276 1 363 -37 137 -91 217 -205 305 l-73 57 61 64 c68 73 93
118 115 201 31 119 11 314 -44 421 -46 89 -156 172 -272 203 -29 8 -181 13
-441 16 l-398 5 0 -1037z m653 885 c141 -14 199 -36 264 -102 71 -73 87 -125
81 -266 -3 -87 -9 -118 -28 -156 -31 -65 -81 -113 -149 -144 -55 -24 -62 -25
-358 -30 l-303 -5 0 347 0 347 23 9 c31 12 339 12 470 0z m129 -866 c135 -14
263 -127 303 -266 21 -74 24 -263 6 -338 -40 -164 -152 -266 -318 -290 -37 -5
-191 -10 -340 -10 l-273 0 0 461 0 460 288 -6 c158 -3 308 -8 334 -11z"/>
<path d="M11463 4349 c-74 -12 -153 -44 -209 -84 l-49 -35 -3 50 -3 50 -75 0
-74 0 0 -745 0 -745 34 0 c18 0 53 3 78 6 l45 6 6 617 7 616 45 40 c24 22 66
49 92 59 58 22 244 33 321 18 60 -11 68 -5 92 72 18 55 4 64 -115 76 -114 11
-121 11 -192 -1z"/>
<path d="M12319 4342 c-169 -45 -295 -177 -347 -365 -14 -53 -17 -111 -17
-387 0 -287 2 -332 18 -385 38 -124 135 -260 221 -310 89 -52 171 -70 311 -70
110 0 141 4 204 24 41 14 94 38 120 55 99 67 188 217 210 357 14 81 14 332 1
557 -9 147 -14 182 -36 235 -48 119 -163 233 -275 272 -99 35 -307 44 -410 17z
m248 -132 c139 -18 241 -92 288 -207 24 -60 29 -88 37 -248 14 -239 0 -486
-31 -567 -26 -66 -95 -148 -156 -183 -95 -56 -305 -56 -400 -1 -52 31 -126
110 -157 167 -23 44 -23 45 -23 419 l0 375 34 63 c53 98 143 164 248 182 66
11 78 11 160 0z"/>
<path d="M10099 4340 c-69 -11 -153 -48 -230 -100 -32 -22 -61 -40 -65 -40 -3
0 -4 29 -2 65 l3 65 -77 0 -78 0 0 -1050 c0 -577 3 -1050 8 -1050 4 1 39 13
77 28 l70 28 3 337 2 338 65 -47 c102 -72 149 -87 300 -92 155 -5 233 10 337
65 82 43 155 120 200 210 30 61 31 67 40 275 13 287 3 543 -24 623 -55 166
-156 272 -311 325 -71 24 -229 34 -318 20z m214 -145 c121 -31 207 -98 247
-189 36 -82 42 -150 38 -476 l-3 -315 -27 -51 c-36 -69 -106 -137 -174 -170
-52 -25 -65 -27 -187 -28 -121 0 -137 2 -189 26 -68 31 -142 98 -169 151 -27
52 -39 169 -38 372 0 285 12 424 39 481 78 161 279 247 463 199z"/>
<path d="M13163 4323 c-18 -2 -33 -8 -33 -12 0 -7 210 -710 386 -1291 25 -85
54 -161 62 -167 18 -15 158 -18 194 -4 22 8 35 54 167 577 79 313 147 576 152
584 6 12 10 8 19 -15 10 -25 243 -936 280 -1092 l12 -53 114 0 113 0 40 128
c112 360 404 1310 408 1330 5 21 3 22 -75 22 l-80 0 -21 -62 c-11 -35 -54
-178 -96 -318 -97 -324 -206 -674 -252 -813 l-37 -109 -37 143 c-21 78 -95
370 -165 648 -70 278 -128 507 -129 508 -1 2 -38 0 -82 -4 l-81 -6 -40 -156
c-22 -86 -98 -378 -169 -650 l-128 -494 -23 74 c-35 111 -328 1073 -353 1162
l-23 77 -46 -2 c-25 0 -60 -3 -77 -5z"/>
<path d="M15405 3585 l0 -745 30 0 c17 0 53 3 81 6 l50 6 3 739 3 739 -84 0
-83 0 0 -745z"/>
<path d="M16090 4260 l0 -70 108 -1 c59 -1 235 -5 392 -8 l286 -6 -403 -585
-403 -584 0 -83 0 -83 535 0 535 0 0 75 0 75 -317 1 c-175 1 -371 4 -436 8
l-119 6 203 295 c111 162 293 426 405 587 l204 292 0 75 0 76 -495 0 -495 0 0
-70z"/>
<path d="M17260 4325 c0 -2 12 -34 27 -69 26 -65 27 -65 72 -71 25 -4 58 -9
74 -11 l27 -6 -1 -561 c0 -309 -4 -672 -8 -807 -6 -229 -8 -248 -30 -290 -30
-59 -64 -95 -130 -137 l-53 -35 6 -45 c8 -63 12 -66 69 -59 107 15 192 78 243
181 33 66 37 86 45 187 4 62 8 476 8 921 l1 807 -175 0 c-96 0 -175 -2 -175
-5z"/>
<path d="M18072 3595 c2 -404 7 -737 10 -740 3 -3 38 -9 77 -12 l71 -6 0 747
0 746 -81 0 -82 0 5 -735z"/>
<path d="M2360 4277 c-136 -46 -235 -129 -292 -245 l-32 -65 -10 -325 c-11
-385 -2 -569 33 -647 44 -100 167 -192 288 -215 91 -18 330 -8 413 18 90 27
216 80 230 97 9 11 6 27 -14 70 l-25 56 -33 -14 c-18 -8 -60 -26 -94 -40 -147
-62 -388 -76 -488 -27 -56 27 -131 108 -140 152 -15 78 -27 271 -16 278 6 3
196 16 423 29 226 12 427 24 445 27 l32 5 0 222 c0 122 -5 249 -10 282 -29
179 -177 325 -360 354 -113 19 -276 13 -350 -12z m308 -122 c109 -26 175 -73
220 -159 26 -49 27 -58 30 -226 1 -96 -1 -181 -6 -188 -10 -14 -186 -27 -526
-38 l-219 -7 7 154 c12 248 44 342 138 406 40 28 106 56 153 66 45 10 144 6
203 -8z"/>
<path d="M3470 4210 l0 -70 384 0 c212 0 387 -4 390 -9 6 -9 -90 -152 -519
-776 l-285 -414 0 -70 0 -71 545 0 545 0 0 70 0 70 -402 0 c-222 0 -420 3
-440 6 l-37 6 81 122 c45 66 229 335 410 597 l328 477 0 66 0 66 -500 0 -500
0 0 -70z"/>
<path d="M9039 1400 c-8 -5 -35 -37 -59 -71 l-44 -63 92 63 c51 35 95 67 98
72 7 12 -67 11 -87 -1z"/>
<path d="M4149 1186 c-121 -35 -226 -122 -280 -232 -30 -61 -33 -74 -33 -168
-1 -96 1 -105 33 -171 40 -81 112 -156 192 -200 l54 -30 175 0 c152 0 180 2
203 18 15 9 27 26 27 37 0 11 -2 20 -4 20 -2 0 -35 -14 -72 -32 -64 -30 -76
-32 -174 -32 -94 0 -111 3 -163 28 -61 29 -119 91 -158 168 -46 91 -42 300 8
403 21 42 101 123 144 145 49 26 162 43 227 35 30 -4 81 -20 115 -36 61 -28
86 -27 74 5 -16 40 -274 70 -368 42z"/>
<path d="M5961 1184 c-122 -33 -209 -106 -262 -217 -118 -253 21 -539 286
-588 71 -13 178 -5 237 18 59 22 143 83 174 124 62 82 78 128 82 235 5 126
-11 189 -71 271 -102 138 -282 201 -446 157z m232 -28 c55 -22 139 -107 172
-172 25 -50 29 -70 33 -169 6 -159 -27 -261 -110 -342 -57 -55 -121 -77 -220
-77 -112 1 -177 30 -239 107 -74 93 -83 123 -84 282 0 138 0 141 32 201 54
104 104 150 196 180 52 17 169 12 220 -10z"/>
<path d="M6756 1184 c-3 -11 -12 -192 -21 -403 -9 -212 -18 -388 -21 -393 -3
-4 14 -8 37 -8 l42 0 -7 153 c-3 83 -9 235 -12 337 -8 215 -12 212 87 67 101
-148 232 -331 243 -339 6 -4 16 -3 22 3 6 5 72 122 145 259 74 137 137 250
140 250 8 0 19 -327 19 -552 l0 -178 30 0 30 0 0 400 0 400 -39 0 -39 0 -105
-202 c-118 -230 -158 -300 -171 -302 -6 -1 -77 96 -158 214 -82 118 -164 237
-182 264 -28 40 -35 45 -40 30z"/>
<path d="M8085 1190 c-113 -24 -202 -80 -260 -165 -55 -80 -68 -127 -69 -245
-1 -101 1 -108 37 -181 41 -86 105 -151 185 -191 40 -20 65 -23 176 -26 126
-4 129 -3 190 27 71 35 125 84 168 150 43 68 60 140 59 244 0 78 -4 98 -30
153 -81 174 -272 271 -456 234z m207 -38 c70 -31 131 -92 164 -165 24 -53 29
-78 32 -168 8 -212 -48 -332 -188 -397 -45 -21 -70 -26 -140 -26 -78 -1 -90 2
-147 33 -42 22 -75 50 -102 85 -58 76 -74 131 -75 266 -1 146 22 215 98 297
70 74 145 105 241 100 41 -3 90 -13 117 -25z"/>
<path d="M8930 1191 c-126 -39 -181 -147 -131 -257 20 -43 56 -76 191 -172
150 -107 190 -164 169 -248 -31 -121 -177 -159 -326 -84 -42 21 -59 26 -65 17
-28 -44 36 -65 200 -66 123 -1 147 6 194 56 78 82 76 227 -5 302 -15 13 -82
60 -149 105 -134 89 -168 127 -168 187 0 53 16 84 60 114 59 41 132 44 209 10
52 -24 64 -26 71 -14 15 24 -10 37 -93 48 -88 12 -121 13 -157 2z"/>
<path d="M9740 1190 c-115 -24 -229 -111 -296 -225 -28 -48 -29 -54 -29 -180
0 -126 1 -132 30 -185 40 -73 118 -149 190 -185 54 -27 71 -30 175 -33 163 -5
237 4 266 33 13 13 24 31 24 39 0 12 -16 8 -70 -18 -121 -59 -262 -58 -373 2
-54 29 -91 71 -133 152 -28 53 -29 60 -29 191 1 133 1 137 33 202 91 184 302
246 505 148 40 -19 56 -24 53 -14 -4 8 -6 21 -6 28 0 35 -238 66 -340 45z"/>
<path d="M17042 1175 c-93 -48 -129 -128 -100 -225 15 -49 34 -66 218 -200
124 -90 150 -124 150 -198 0 -64 -19 -103 -63 -131 -71 -44 -195 -35 -282 20
l-45 29 0 -24 c0 -39 30 -55 121 -67 211 -27 314 35 327 196 7 99 -31 149
-203 265 -130 88 -175 136 -175 191 0 90 63 144 170 144 53 0 74 -5 112 -27
57 -34 58 -34 58 -3 0 30 -41 44 -155 51 -73 5 -85 3 -133 -21z"/>
<path d="M306 1181 c-4 -6 -36 -695 -36 -783 0 -14 8 -18 38 -18 l37 0 -7 117
c-17 300 -21 566 -9 559 6 -4 135 -155 286 -336 151 -181 279 -331 284 -334 5
-3 11 0 14 8 5 12 22 430 30 704 l2 82 -37 0 -38 0 6 -42 c8 -69 23 -595 17
-617 -5 -21 -38 16 -417 477 -87 105 -160 192 -162 192 -1 0 -5 -4 -8 -9z"/>
<path d="M11030 783 l0 -403 93 1 c50 0 142 4 202 8 95 7 119 13 173 40 131
66 193 152 213 296 26 192 -47 333 -218 417 -61 30 -69 31 -211 35 -81 2 -171
5 -199 7 l-53 3 0 -404z m415 348 c59 -26 104 -68 148 -136 l32 -50 0 -160 c0
-172 -4 -190 -63 -260 -69 -82 -145 -110 -329 -120 l-123 -7 0 382 0 383 143
-5 c119 -4 150 -8 192 -27z"/>
<path d="M13610 781 l0 -404 124 7 c162 8 222 20 263 52 137 104 94 299 -77
352 l-60 18 33 16 c111 53 153 146 108 243 -39 87 -100 112 -289 117 l-102 3
0 -404z m268 353 c47 -35 63 -80 60 -161 -3 -66 -6 -75 -37 -107 -38 -39 -91
-56 -175 -56 l-56 0 0 176 0 176 90 -4 c70 -3 96 -9 118 -24z m32 -369 c62
-32 95 -104 88 -195 -3 -46 -10 -65 -37 -98 -38 -48 -65 -58 -198 -68 l-93 -7
0 198 0 198 106 -7 c60 -4 119 -13 134 -21z"/>
<path d="M15446 1153 c-3 -21 -10 -175 -16 -343 -6 -168 -12 -333 -13 -368
l-3 -62 38 0 38 0 -5 68 c-11 132 -23 587 -16 600 5 8 104 -104 291 -328 156
-187 288 -336 292 -332 5 5 15 170 23 368 20 476 22 424 -22 424 l-36 0 6
-103 c14 -226 20 -554 10 -560 -9 -6 -232 256 -473 555 -52 64 -98 117 -102
117 -3 1 -9 -16 -12 -36z"/>
<path d="M1230 780 l0 -400 43 0 42 0 0 400 0 400 -42 0 -43 0 0 -400z"/>
<path d="M1620 780 l0 -400 154 0 c161 0 186 3 186 25 0 19 -17 22 -70 14 -25
-3 -80 -10 -122 -14 l-78 -7 0 197 0 197 127 -3 c119 -4 128 -3 131 15 4 18
-2 18 -127 11 l-131 -7 0 178 0 177 88 -7 c48 -3 109 -9 136 -12 43 -6 48 -5
44 12 -3 18 -16 19 -171 22 l-167 2 0 -400z"/>
<path d="M2220 781 l0 -401 35 0 35 0 0 391 0 392 83 -5 c128 -7 167 -44 167
-158 0 -106 -44 -164 -134 -176 -57 -8 -59 -20 -6 -27 81 -11 135 -75 191
-228 17 -46 41 -100 54 -120 26 -41 78 -69 126 -69 l32 0 -41 30 c-46 33 -56
50 -101 166 -45 117 -81 166 -145 200 l-55 28 52 28 c70 39 83 52 97 103 15
54 7 119 -21 164 -33 54 -92 74 -241 79 l-128 5 0 -402z"/>
<path d="M2952 893 c4 -283 5 -289 29 -343 36 -77 71 -115 137 -147 51 -25 67
-28 162 -28 95 0 111 3 162 28 99 49 122 102 137 309 6 79 13 216 16 306 l6
162 -36 0 -37 0 7 -132 c10 -193 11 -437 2 -481 -10 -46 -66 -111 -121 -140
-64 -33 -174 -30 -249 7 -63 30 -108 82 -128 145 -7 21 -13 151 -16 319 l-5
282 -35 0 -36 0 5 -287z"/>
<path d="M4760 780 l0 -400 34 0 34 0 4 194 c1 107 7 198 11 203 5 4 116 10
248 11 l239 4 0 -206 0 -206 40 0 40 0 0 400 0 400 -40 0 -40 0 0 -186 0 -186
-239 4 c-132 1 -243 7 -248 11 -4 5 -9 87 -11 183 l-4 174 -34 0 -34 0 0 -400z"/>
<path d="M10340 780 l0 -400 35 0 35 0 0 400 0 400 -35 0 -35 0 0 -400z"/>
<path d="M11970 780 l0 -400 161 2 c140 3 163 5 173 20 5 9 8 20 4 23 -3 3
-58 -1 -122 -10 -64 -8 -124 -15 -132 -15 -12 0 -14 56 -14 390 l0 390 -35 0
-35 0 0 -400z"/>
<path d="M12722 1167 c-6 -7 -72 -172 -147 -367 -75 -195 -140 -366 -146 -379
-15 -35 4 -50 38 -31 24 13 35 40 86 199 l59 184 75 -7 c42 -3 102 -6 133 -6
l58 0 40 -107 c101 -271 102 -273 125 -273 50 1 50 10 -4 151 -121 319 -233
596 -251 622 -21 29 -49 35 -66 14z m59 -154 c39 -100 79 -212 79 -220 0 -7
-229 -2 -234 5 -7 12 93 322 104 322 5 0 27 -48 51 -107z"/>
<path d="M14325 780 l0 -400 35 0 35 0 0 400 0 400 -35 0 -35 0 0 -400z"/>
<path d="M14643 1173 c-7 -2 -13 -11 -13 -19 0 -18 24 -18 269 1 107 9 198 12
202 8 4 -4 -106 -179 -245 -388 l-253 -380 46 -7 c25 -3 162 -7 304 -7 l257
-1 0 26 0 27 -87 -7 c-150 -12 -407 -25 -411 -21 -8 8 73 137 412 652 37 57
65 107 61 113 -6 10 -517 13 -542 3z"/>
<path d="M16380 780 l0 -400 163 0 c89 0 168 4 176 9 22 14 5 42 -21 36 -22
-4 -206 -25 -228 -25 -6 0 -10 67 -10 196 l0 196 122 -3 c114 -4 123 -3 126
15 4 18 -2 18 -122 12 l-126 -8 0 183 0 182 38 -6 c107 -17 223 -29 229 -24 3
3 3 13 0 22 -5 13 -32 15 -177 15 l-170 0 0 -400z"/>
<path d="M17603 898 c6 -322 12 -356 77 -431 50 -56 117 -84 228 -93 58 -5 92
-2 133 10 68 19 140 80 163 136 17 43 30 205 40 498 l6 162 -37 0 -38 0 7
-117 c3 -65 7 -207 7 -315 l1 -196 -33 -44 c-48 -65 -128 -101 -220 -101 -113
0 -184 40 -229 128 -26 49 -36 183 -37 458 l-1 187 -36 0 -37 0 6 -282z"/>
</g>
</svg>
