<svg xmlns="http://www.w3.org/2000/svg" xmlns:xlink="http://www.w3.org/1999/xlink" width="275" zoomAndPan="magnify" viewBox="0 0 206.25 138.750001" height="185" preserveAspectRatio="xMidYMid meet" version="1.0"><defs><g/><clipPath id="7629f630ef"><path d="M 0 0.125 L 205.503906 0.125 L 205.503906 138.375 L 0 138.375 Z M 0 0.125 " clip-rule="nonzero"/></clipPath><clipPath id="0e9081d3b5"><path d="M 50.507812 0.125 L 154.378906 0.125 L 154.378906 94.285156 L 50.507812 94.285156 Z M 50.507812 0.125 " clip-rule="nonzero"/></clipPath></defs><g clip-path="url(#7629f630ef)"><path fill="#ffffff" d="M 0 0.125 L 205.503906 0.125 L 205.503906 138.375 L 0 138.375 Z M 0 0.125 " fill-opacity="1" fill-rule="nonzero"/></g><g clip-path="url(#0e9081d3b5)"><path fill="#003882" d="M 93.769531 94.605469 L 93.769531 94.601562 L 95.957031 94.601562 L 95.957031 59.578125 C 95.957031 59.578125 95.589844 59.367188 95.589844 59.367188 L 89.375 55.78125 L 95.589844 52.191406 L 95.957031 51.980469 L 95.957031 51.558594 C 95.957031 51.558594 95.957031 27.441406 95.957031 27.441406 L 138.464844 51.976562 L 138.464844 93.140625 L 125.277344 93.140625 L 125.277344 51.546875 L 123.8125 51.546875 L 123.8125 93.140625 L 113.1875 93.140625 L 113.1875 94.605469 L 146.53125 94.605469 L 146.53125 93.140625 L 139.933594 93.140625 L 139.933594 52.824219 L 153.5 60.65625 L 154.234375 59.386719 L 139.933594 51.128906 L 139.933594 35.890625 L 147.320312 40.15625 L 148.054688 38.886719 L 139.933594 34.199219 L 139.933594 25.027344 L 138.464844 25.027344 L 138.464844 33.351562 L 80.929688 0.125 L 80.195312 1.394531 L 93.761719 9.226562 L 88.601562 12.195312 L 88.601562 12.179688 L 87.503906 12.816406 L 58.199219 29.734375 L 57.832031 29.945312 L 57.832031 29.960938 L 50.875 33.976562 L 50.507812 34.1875 L 50.507812 94.601562 L 58.445312 94.601562 L 58.445312 94.605469 Z M 73.230469 65.097656 L 79.828125 68.898438 L 79.828125 78.476562 L 66.636719 78.476562 L 66.636719 68.898438 Z M 73.230469 46.457031 C 73.230469 46.457031 72.867188 46.671875 72.867188 46.671875 L 66.636719 50.269531 L 66.636719 43.488281 L 79.828125 35.875 L 79.828125 35.894531 C 79.828125 35.894531 79.828125 42.65625 79.828125 42.65625 Z M 138.464844 50.28125 L 95.96875 25.753906 L 95.957031 10.496094 L 138.464844 35.042969 Z M 138.464844 50.28125 " fill-opacity="1" fill-rule="nonzero"/></g><g fill="#003882" fill-opacity="1"><g transform="translate(4.938787, 116.063658)"><g><path d="M 2.15625 -16.734375 C 2.71875 -16.796875 3.410156 -16.847656 4.234375 -16.890625 C 5.054688 -16.941406 6.007812 -16.96875 7.09375 -16.96875 C 9.15625 -16.96875 10.734375 -16.582031 11.828125 -15.8125 C 12.921875 -15.050781 13.46875 -14 13.46875 -12.65625 C 13.46875 -11.757812 13.234375 -11.003906 12.765625 -10.390625 C 12.304688 -9.785156 11.625 -9.285156 10.71875 -8.890625 C 11.800781 -8.503906 12.617188 -7.972656 13.171875 -7.296875 C 13.734375 -6.628906 14.015625 -5.796875 14.015625 -4.796875 C 14.015625 -3.265625 13.421875 -2.050781 12.234375 -1.15625 C 11.046875 -0.257812 9.300781 0.1875 7 0.1875 C 6.019531 0.1875 5.09375 0.164062 4.21875 0.125 C 3.351562 0.09375 2.664062 0.0351562 2.15625 -0.046875 Z M 7.171875 -1.703125 C 8.609375 -1.703125 9.722656 -1.957031 10.515625 -2.46875 C 11.304688 -2.976562 11.703125 -3.722656 11.703125 -4.703125 C 11.703125 -5.660156 11.304688 -6.410156 10.515625 -6.953125 C 9.734375 -7.492188 8.617188 -7.765625 7.171875 -7.765625 L 4.4375 -7.765625 L 4.4375 -1.84375 C 5.269531 -1.75 6.179688 -1.703125 7.171875 -1.703125 Z M 7.078125 -9.546875 C 8.335938 -9.546875 9.335938 -9.800781 10.078125 -10.3125 C 10.816406 -10.832031 11.1875 -11.519531 11.1875 -12.375 C 11.1875 -13.28125 10.816406 -13.960938 10.078125 -14.421875 C 9.347656 -14.890625 8.347656 -15.125 7.078125 -15.125 C 6.546875 -15.125 6.0625 -15.109375 5.625 -15.078125 C 5.195312 -15.054688 4.800781 -15.03125 4.4375 -15 L 4.4375 -9.546875 Z M 7.078125 -9.546875 "/></g></g></g><g fill="#003882" fill-opacity="1"><g transform="translate(22.390254, 116.063658)"><g><path d="M 2.15625 -16.78125 L 12.21875 -16.78125 L 12.21875 -14.8125 L 4.4375 -14.8125 L 4.4375 -9.703125 L 11.140625 -9.703125 L 11.140625 -7.796875 L 4.4375 -7.796875 L 4.4375 -1.96875 L 12.21875 -1.96875 L 12.21875 0 L 2.15625 0 Z M 2.15625 -16.78125 "/></g></g></g><g fill="#003882" fill-opacity="1"><g transform="translate(38.043869, 116.063658)"><g><path d="M 0.953125 -1.78125 L 9.875 -14.8125 L 1.359375 -1 4.8125 L 1.359375 -16.78125 L 12.484375 -16.78125 L 12.484375 -15.046875 L 3.578125 -2.015625 L 12.828125 -2.015625 L 12.828125 0 L 0.953125 0 Z M 0.953125 -1.78125 "/></g></g></g><g fill="#003882" fill-opacity="1"><g transform="translate(54.176916, 116.063658)"><g><path d="M 3.109375 -7.234375 L 3.109375 -9.203125 L 11.265625 -9.203125 L 11.265625 -7.234375 Z M 3.109375 -7.234375 "/></g></g></g><g fill="#003882" fill-opacity="1"><g transform="translate(70.909245, 116.063658)"><g><path d="M 2.15625 -16.734375 C 2.820312 -16.804688 3.539062 -16.863281 4.3125 -16.90625 C 5.09375 -16.945312 5.914062 -16.96875 6.78125 -16.96875 C 7.820312 -16.96875 8.75 -16.835938 9.5625 -16.578125 C 10.375 -16.328125 11.0625 -15.976562 11.625 -15.53125 C 12.1875 -15.082031 12.609375 -14.539062 12.890625 -13.90625 C 13.179688 -13.28125 13.328125 -12.597656 13.328125 -11.859375 C 13.328125 -10.960938 13.15625 -10.164062 12.8125 -9.46875 C 12.46875 -8.78125 11.988281 -8.195312 11.375 -7.71875 C 10.757812 -7.238281 10.019531 -6.875 9.15625 -6.625 C 8.289062 -6.375 7.335938 -6.25 6.296875 -6.25 C 5.628906 -6.25 5.007812 -6.273438 4.4375 -6.328125 L 4.4375 0 L 2.15625 0 Z M 6.59375 -8.15625 C 8.03125 -8.15625 9.132812 -8.46875 9.90625 -9.09375 C 10.6875 -9.726562 11.078125 -10.585938 11.078125 -11.671875 C 11.078125 -12.710938 10.703125 -13.535156 9.953125 -14.140625 C 9.210938 -14.742188 8.140625 -15.046875 6.734375 -15.046875 C 6.304688 -15.046875 5.898438 -15.035156 5.515625 -15.015625 C 5.128906 -15.003906 4.769531 -14.984375 4.4375 -14.953125 L 4.4375 -8.265625 C 4.6875 -8.234375 4.988281 -8.207031 5.34375 -8.1875 C 5.707031 -8.164062 6.125 -8.15625 6.59375 -8.15625 Z M 6.59375 -8.15625 "/></g></g></g><g fill="#003882" fill-opacity="1"><g transform="translate(87.18612, 116.063658)"><g><path d="M 11.9375 0.28125 L 9.84375 -4.265625 C 9.320312 -5.398438 8.660156 -6.207031 7.859375 -6.6875 C 7.054688 -7.164062 6.035156 -7.40625 4.796875 -7.40625 L 4.4375 -7.40625 L 4.4375 0 L 2.15625 0 L 2.15625 -16.734375 C 3.019531 -16.804688 3.832031 -16.863281 4.59375 -16.90625 C 5.351562 -16.945312 6.179688 -16.96875 7.078125 -16.96875 C 8.097656 -16.96875 8.988281 -16.859375 9.75 -16.640625 C 10.519531 -16.429688 11.160156 -16.125 11.671875 -15.71875 C 12.179688 -15.320312 12.566406 -14.851562 12.828125 -14.3125 C 13.097656 -13.769531 13.234375 -13.171875 13.234375 -12.515625 C 13.234375 -11.347656 12.882812 -10.40625 12.1875 -9.6875 C 11.488281 -8.976562 10.488281 -8.445312 9.1875 -8.09375 C 9.5 -7.957031 9.789062 -7.796875 10.0625 -7.609375 C 10.332031 -7.421875 10.585938 -7.195312 10.828125 -6.9375 C 11.066406 -6.675781 11.300781 -6.359375 11.53125 -5.984375 C 11.769531 -5.617188 12.007812 -5.175781 12.25 -4.65625 L 14.0625 -0.71875 Z M 7.078125 -15.046875 C 6.523438 -15.046875 6.035156 -15.035156 5.609375 -15.015625 C 5.179688 -15.003906 4.789062 -14.984375 4.4375 -14.953125 L 4.4375 -9.328125 L 7.078125 -9.328125 C 8.222656 -9.328125 9.15625 -9.582031 9.875 -10.09375 C 10.59375 -10.601562 10.953125 -11.335938 10.953125 -12.296875 C 10.953125 -13.097656 10.613281 -13.753906 9.9375 -14.265625 C 9.269531 -14.785156 8.316406 -15.046875 7.078125 -15.046875 Z M 7.078125 -15.046875 "/></g></g></g><g fill="#003882" fill-opacity="1"><g transform="translate(104.325968, 116.063658)"><g><path d="M 1.203125 -8.40625 C 1.203125 -9.644531 1.378906 -10.789062 1.734375 -11.84375 C 2.097656 -12.894531 2.617188 -13.804688 3.296875 -14.578125 C 3.972656 -15.359375 4.796875 -15.96875 5.765625 -16.40625 C 6.742188 -16.84375 7.859375 -17.0625 9.109375 -17.0625 C 10.335938 -17.0625 11.441406 -16.832031 12.421875 -16.375 C 13.410156 -15.925781 14.242188 -15.304688 14.921875 -14.515625 C 15.597656 -13.734375 16.117188 -12.816406 16.484375 -11.765625 C 16.859375 -10.722656 17.046875 -9.601562 17.046875 -8.40625 C 17.046875 -7.207031 16.863281 -6.082031 16.5 -5.03125 C 16.144531 -3.976562 15.625 -3.054688 14.9375 -2.265625 C 14.25 -1.472656 13.414062 -0.847656 12.4375 -0.390625 C 11.46875 0.0546875 10.359375 0.28125 9.109375 0.28125 C 7.859375 0.28125 6.742188 0.0546875 5.765625 -0.390625 C 4.796875 -0.847656 3.972656 -1.472656 3.296875 -2.265625 C 2.617188 -3.054688 2.097656 -3.976562 1.734375 -5.03125 C 1.378906 -6.082031 1.203125 -7.207031 1.203125 -8.40625 Z M 3.515625 -8.40625 C 3.515625 -7.550781 3.640625 -6.710938 3.890625 -5.890625 C 4.140625 -5.078125 4.503906 -4.359375 4.984375 -3.734375 C 5.460938 -3.109375 6.050781 -2.609375 6.75 -2.234375 C 7.445312 -1.859375 8.234375 -1.671875 9.109375 -1.671875 C 10.035156 -1.671875 10.84375 -1.84375 11.53125 -2.1875 C 12.226562 -2.53125 12.8125 -3 13.28125 -3.59375 C 13.757812 -4.195312 14.117188 -4.910156 14.359375 -5.734375 C 14.597656 -6.554688 14.71875 -7.445312 14.71875 -8.40625 C 14.71875 -9.269531 14.585938 -10.101562 14.328125 -10.90625 C 14.078125 -11.707031 13.710938 -12.414062 13.234375 -13.03125 C 12.753906 -13.65625 12.164062 -14.15625 11.46875 -14.53125 C 10.769531 -14.90625 9.984375 -15.09375 9.109375 -15.09375 C 8.234375 -15.09375 7.445312 -14.921875 6.75 -14.578125 C 6.050781 -14.234375 5.460938 -13.757812 4.984375 -13.15625 C 4.503906 -12.5625 4.140625 -11.859375 3.890625 -11.046875 C 3.640625 -10.234375 3.515625 -9.351562 3.515625 -8.40625 Z M 3.515625 -8.40625 "/></g></g></g><g fill="#003882" fill-opacity="1"><g transform="translate(124.917687, 116.063658)"><g><path d="M 0.359375 -16.234375 L 2.609375 -16.953125 L 6.40625 -2.421875 L 9.96875 -15.03125 L 12.828125 -15.03125 L 16.375 -2.421875 L 20.140625 -16.875 L 22.25 -16.234375 L 17.71875 0 L 14.890625 0 L 11.34375 -12.609375 L 7.734375 0 L 4.90625 0 Z M 0.359375 -16.234375 "/></g></g></g><g fill="#003882" fill-opacity="1"><g transform="translate(149.872188, 116.063658)"><g><path d="M 2.15625 0 L 2.15625 -16.78125 L 4.4375 -16.78125 L 4.4375 0 Z M 2.15625 0 "/></g></g></g><g fill="#003882" fill-opacity="1"><g transform="translate(158.813832, 116.063658)"><g><path d="M 0.953125 -1.78125 L 9.875 -14.8125 L 1.359375 -14.8125 L 1.359375 -16.78125 L 12.484375 -16.78125 L 12.484375 -15.046875 L 3.578125 -2.015625 L 12.828125 -2.015625 L 12.828125 0 L 0.953125 0 Z M 0.953125 -1.78125 "/></g></g></g><g fill="#003882" fill-opacity="1"><g transform="translate(174.946885, 116.063658)"><g><path d="M 6.109375 -16.78125 L 8.390625 -16.78125 L 8.390625 -5.53125 C 8.390625 -4.507812 8.273438 -3.628906 8.046875 -2.890625 C 7.828125 -2.160156 7.507812 -1.5625 7.09375 -1.09375 C 6.675781 -0.625 6.179688 -0.273438 5.609375 -0.046875 C 5.035156 0.171875 4.394531 0.28125 3.6875 0.28125 C 2.957031 0.28125 2.265625 0.15625 1.609375 -0.09375 C 0.960938 -0.351562 0.425781 -0.691406 0 -1.109375 L 1.109375 -2.859375 C 1.421875 -2.515625 1.800781 -2.226562 2.25 -2 C 2.695312 -1.78125 3.15625 -1.671875 3.625 -1.671875 C 4.382812 -1.671875 4.988281 -1.941406 5.4375 -2.484375 C 5.882812 -3.035156 6.109375 -3.972656 6.109375 -5.296875 Z M 6.109375 -16.78125 "/></g></g></g><g fill="#003882" fill-opacity="1"><g transform="translate(187.604086, 116.063658)"><g><path d="M 2.15625 0 L 2.15625 -16.78125 L 4.4375 -16.78125 L 4.4375 0 Z M 2.15625 0 "/></g></g></g><g fill="#003882" fill-opacity="1"><g transform="translate(15.603441, 131.328503)"><g><path d="M 1.625 -5.921875 L 1.625 0 L 0.90625 0 L 0.90625 -7.234375 L 1.5 -7.234375 L 6.25 -1.203125 L 6.25 -7.21875 L 6.953125 -7.21875 L 6.953125 0 L 6.296875 0 Z M 1.625 -5.921875 "/></g></g></g><g fill="#003882" fill-opacity="1"><g transform="translate(24.269296, 131.328503)"><g><path d="M 0.90625 0 L 0.90625 -7.234375 L 1.625 -7.234375 L 1.625 0 Z M 0.90625 0 "/></g></g></g><g fill="#003882" fill-opacity="1"><g transform="translate(27.599965, 131.328503)"><g><path d="M 5.765625 -0.625 L 5.765625 0 L 0.90625 0 L 0.90625 -7.234375 L 5.671875 -7.234375 L 5.671875 -6.59375 L 1.625 -6.59375 L 1.625 -4 L 5.15625 -4 L 5.15625 -3.390625 L 1.625 -3.390625 L 1.625 -0.625 Z M 5.765625 -0.625 "/></g></g></g><g fill="#003882" fill-opacity="1"><g transform="translate(34.606203, 131.328503)"><g><path d="M 0.90625 0 L 0.90625 -7.234375 L 3.96875 -7.234375 C 4.28125 -7.234375 4.5625 -7.164062 4.8125 -7.03125 C 5.070312 -6.90625 5.296875 -6.734375 5.484375 -6.515625 C 5.679688 -6.296875 5.832031 -6.050781 5.9375 -5.78125 C 6.050781 -5.507812 6.109375 -5.238281 6.109375 -4.96875 C 6.109375 -4.613281 6.039062 -4.285156 5.90625 -3.984375 C 5.769531 -3.679688 5.582031 -3.421875 5.34375 -3.203125 C 5.101562 -2.992188 4.820312 -2.859375 4.5 -2.796875 L 6.265625 0 L 5.453125 0 L 3.765625 -2.671875 L 1.625 -2.671875 L 1.625 0 Z M 1.625 -3.296875 L 3.984375 -3.296875 C 4.265625 -3.296875 4.507812 -3.375 4.71875 -3.53125 C 4.9375 -3.6875 5.101562 -3.890625 5.21875 -4.140625 C 5.332031 -4.398438 5.390625 -4.675781 5.390625 -4.96875 C 5.390625 -5.257812 5.320312 -5.523438 5.1875 -5.765625 C 5.050781 -6.015625 4.875 -6.210938 4.65625 -6.359375 C 4.4375 -6.515625 4.191406 -6.59375 3.921875 -6.59375 L 1.625 -6.59375 Z M 1.625 -3.296875 "/></g></g></g><g fill="#003882" fill-opacity="1"><g transform="translate(42.060438, 131.328503)"><g><path d="M 3.84375 0.046875 C 3.28125 0.046875 2.800781 -0.0507812 2.40625 -0.25 C 2.007812 -0.457031 1.695312 -0.734375 1.46875 -1.078125 C 1.238281 -1.421875 1.070312 -1.804688 0.96875 -2.234375 C 0.863281 -2.671875 0.8125 -3.125 0.8125 -3.59375 L 0.8125 -7.234375 L 1.5 -7.234375 L 1.5 -3.59375 C 1.5 -3.21875 1.535156 -2.847656 1.609375 -2.484375 C 1.691406 -2.128906 1.820312 -1.804688 2 -1.515625 C 2.175781 -1.234375 2.414062 -1.007812 2.71875 -0.84375 C 3.019531 -0.675781 3.394531 -0.59375 3.84375 -0.59375 C 4.300781 -0.59375 4.679688 -0.675781 4.984375 -0.84375 C 5.285156 -1.019531 5.519531 -1.25 5.6875 -1.53125 C 5.863281 -1.820312 5.988281 -2.144531 6.0625 -2.5 C 6.144531 -2.851562 6.1875 -3.21875 6.1875 -3.59375 L 6.1875 -7.234375 L 6.890625 -7.234375 L 6.890625 -3.59375 C 6.890625 -3.101562 6.835938 -2.632812 6.734375 -2.1875 C 6.628906 -1.75 6.453125 -1.363281 6.203125 -1.03125 C 5.960938 -0.707031 5.648438 -0.445312 5.265625 -0.25 C 4.878906 -0.0507812 4.40625 0.046875 3.84375 0.046875 Z M 3.84375 0.046875 "/></g></g></g><g fill="#003882" fill-opacity="1"><g transform="translate(50.5532, 131.328503)"><g><path d="M 0.421875 -3.671875 C 0.421875 -4.109375 0.5 -4.539062 0.65625 -4.96875 C 0.8125 -5.394531 1.035156 -5.78125 1.328125 -6.125 C 1.617188 -6.476562 1.976562 -6.757812 2.40625 -6.96875 C 2.832031 -7.175781 3.316406 -7.28125 3.859375 -7.28125 C 4.503906 -7.28125 5.054688 -7.128906 5.515625 -6.828125 C 5.972656 -6.535156 6.3125 -6.15625 6.53125 -5.6875 L 5.96875 -5.34375 C 5.8125 -5.664062 5.613281 -5.921875 5.375 -6.109375 C 5.132812 -6.296875 4.878906 -6.425781 4.609375 -6.5 C 4.347656 -6.582031 4.082031 -6.625 3.8125 -6.625 C 3.382812 -6.625 3.003906 -6.535156 2.671875 -6.359375 C 2.335938 -6.191406 2.054688 -5.960938 1.828125 -5.671875 C 1.597656 -5.390625 1.425781 -5.066406 1.3125 -4.703125 C 1.195312 -4.347656 1.140625 -3.988281 1.140625 -3.625 C 1.140625 -3.226562 1.207031 -2.84375 1.34375 -2.46875 C 1.476562 -2.101562 1.664062 -1.78125 1.90625 -1.5 C 2.15625 -1.21875 2.441406 -0.992188 2.765625 -0.828125 C 3.097656 -0.660156 3.457031 -0.578125 3.84375 -0.578125 C 4.125 -0.578125 4.40625 -0.625 4.6875 -0.71875 C 4.96875 -0.8125 5.234375 -0.957031 5.484375 -1.15625 C 5.734375 -1.351562 5.929688 -1.609375 6.078125 -1.921875 L 6.671875 -1.625 C 6.523438 -1.257812 6.296875 -0.953125 5.984375 -0.703125 C 5.671875 -0.453125 5.320312 -0.257812 4.9375 -0.125 C 4.550781 0 4.175781 0.0625 3.8125 0.0625 C 3.3125 0.0625 2.851562 -0.0390625 2.4375 -0.25 C 2.03125 -0.46875 1.675781 -0.753906 1.375 -1.109375 C 1.070312 -1.472656 0.835938 -1.875 0.671875 -2.3125 C 0.503906 -2.757812 0.421875 -3.210938 0.421875 -3.671875 Z M 0.421875 -3.671875 "/></g></g></g><g fill="#003882" fill-opacity="1"><g transform="translate(58.343424, 131.328503)"><g><path d="M 6.609375 -7.234375 L 6.609375 0 L 5.90625 0 L 5.90625 -3.375 L 1.625 -3.375 L 1.625 0 L 0.90625 0 L 0.90625 -7.234375 L 1.625 -7.234375 L 1.625 -4.015625 L 5.90625 -4.015625 L 5.90625 -7.234375 Z M 6.609375 -7.234375 "/></g></g></g><g fill="#003882" fill-opacity="1"><g transform="translate(66.663094, 131.328503)"><g><path d="M 3.8125 0.046875 C 3.3125 0.046875 2.851562 -0.0507812 2.4375 -0.25 C 2.019531 -0.457031 1.660156 -0.734375 1.359375 -1.078125 C 1.066406 -1.429688 0.835938 -1.828125 0.671875 -2.265625 C 0.503906 -2.703125 0.421875 -3.148438 0.421875 -3.609375 C 0.421875 -4.097656 0.503906 -4.5625 0.671875 -5 C 0.847656 -5.4375 1.085938 -5.828125 1.390625 -6.171875 C 1.703125 -6.515625 2.066406 -6.785156 2.484375 -6.984375 C 2.898438 -7.179688 3.347656 -7.28125 3.828125 -7.28125 C 4.335938 -7.28125 4.800781 -7.175781 5.21875 -6.96875 C 5.632812 -6.757812 5.988281 -6.476562 6.28125 -6.125 C 6.570312 -5.769531 6.800781 -5.375 6.96875 -4.9375 C 7.132812 -4.5 7.21875 -4.054688 7.21875 -3.609375 C 7.21875 -3.128906 7.128906 -2.664062 6.953125 -2.21875 C 6.785156 -1.78125 6.546875 -1.390625 6.234375 -1.046875 C 5.929688 -0.710938 5.570312 -0.445312 5.15625 -0.25 C 4.75 -0.0507812 4.300781 0.046875 3.8125 0.046875 Z M 1.140625 -3.609375 C 1.140625 -3.222656 1.203125 -2.847656 1.328125 -2.484375 C 1.460938 -2.117188 1.644531 -1.796875 1.875 -1.515625 C 2.113281 -1.234375 2.398438 -1.007812 2.734375 -0.84375 C 3.066406 -0.675781 3.425781 -0.59375 3.8125 -0.59375 C 4.226562 -0.59375 4.601562 -0.675781 4.9375 -0.84375 C 5.269531 -1.019531 5.550781 -1.25 5.78125 -1.53125 C 6.007812 -1.820312 6.1875 -2.148438 6.3125 -2.515625 C 6.4375 -2.878906 6.5 -3.242188 6.5 -3.609375 C 6.5 -4.003906 6.429688 -4.378906 6.296875 -4.734375 C 6.171875 -5.097656 5.988281 -5.421875 5.75 -5.703125 C 5.507812 -5.992188 5.222656 -6.21875 4.890625 -6.375 C 4.566406 -6.539062 4.207031 -6.625 3.8125 -6.625 C 3.40625 -6.625 3.035156 -6.539062 2.703125 -6.375 C 2.378906 -6.207031 2.097656 -5.976562 1.859375 -5.6875 C 1.628906 -5.394531 1.453125 -5.066406 1.328125 -4.703125 C 1.203125 -4.347656 1.140625 -3.984375 1.140625 -3.609375 Z M 1.140625 -3.609375 "/></g></g></g><g fill="#003882" fill-opacity="1"><g transform="translate(75.115126, 131.328503)"><g><path d="M 7.3125 0 L 7.3125 -5.890625 L 4.703125 -1.3125 L 4.25 -1.3125 L 1.625 -5.890625 L 1.625 0 L 0.90625 0 L 0.90625 -7.234375 L 1.640625 -7.234375 L 4.46875 -2.28125 L 7.296875 -7.234375 L 8.03125 -7.234375 L 8.03125 0 Z M 7.3125 0 "/></g></g></g><g fill="#003882" fill-opacity="1"><g transform="translate(84.850045, 131.328503)"><g><path d="M 3.8125 0.046875 C 3.3125 0.046875 2.851562 -0.0507812 2.4375 -0.25 C 2.019531 -0.457031 1.660156 -0.734375 1.359375 -1.078125 C 1.066406 -1.429688 0.835938 -1.828125 0.671875 -2.265625 C 0.503906 -2.703125 0.421875 -3.148438 0.421875 -3.609375 C 0.421875 -4.097656 0.503906 -4.5625 0.671875 -5 C 0.847656 -5.4375 1.085938 -5.828125 1.390625 -6.171875 C 1.703125 -6.515625 2.066406 -6.785156 2.484375 -6.984375 C 2.898438 -7.179688 3.347656 -7.28125 3.828125 -7.28125 C 4.335938 -7.28125 4.800781 -7.175781 5.21875 -6.96875 C 5.632812 -6.757812 5.988281 -6.476562 6.28125 -6.125 C 6.570312 -5.769531 6.800781 -5.375 6.96875 -4.9375 C 7.132812 -4.5 7.21875 -4.054688 7.21875 -3.609375 C 7.21875 -3.128906 7.128906 -2.664062 6.953125 -2.21875 C 6.785156 -1.78125 6.546875 -1.390625 6.234375 -1.046875 C 5.929688 -0.710938 5.570312 -0.445312 5.15625 -0.25 C 4.75 -0.0507812 4.300781 0.046875 3.8125 0.046875 Z M 1.140625 -3.609375 C 1.140625 -3.222656 1.203125 -2.847656 1.328125 -2.484375 C 1.460938 -2.117188 1.644531 -1.796875 1.875 -1.515625 C 2.113281 -1.234375 2.398438 -1.007812 2.734375 -0.84375 C 3.066406 -0.675781 3.425781 -0.59375 3.8125 -0.59375 C 4.226562 -0.59375 4.601562 -0.675781 4.9375 -0.84375 C 5.269531 -1.019531 5.550781 -1.25 5.78125 -1.53125 C 6.007812 -1.820312 6.1875 -2.148438 6.3125 -2.515625 C 6.4375 -2.878906 6.5 -3.242188 6.5 -3.609375 C 6.5 -4.003906 6.429688 -4.378906 6.296875 -4.734375 C 6.171875 -5.097656 5.988281 -5.421875 5.75 -5.703125 C 5.507812 -5.992188 5.222656 -6.21875 4.890625 -6.375 C 4.566406 -6.539062 4.207031 -6.625 3.8125 -6.625 C 3.40625 -6.625 3.035156 -6.539062 2.703125 -6.375 C 2.378906 -6.207031 2.097656 -5.976562 1.859375 -5.6875 C 1.628906 -5.394531 1.453125 -5.066406 1.328125 -4.703125 C 1.203125 -4.347656 1.140625 -3.984375 1.140625 -3.609375 Z M 1.140625 -3.609375 "/></g></g></g><g fill="#003882" fill-opacity="1"><g transform="translate(93.302077, 131.328503)"><g><path d="M 5.140625 -5.875 C 5.035156 -5.988281 4.914062 -6.09375 4.78125 -6.1875 C 4.644531 -6.28125 4.488281 -6.359375 4.3125 -6.421875 C 4.144531 -6.492188 3.960938 -6.550781 3.765625 -6.59375 C 3.578125 -6.632812 3.375 -6.65625 3.15625 -6.65625 C 2.519531 -6.65625 2.054688 -6.53125 1.765625 -6.28125 C 1.472656 -6.039062 1.328125 -5.71875 1.328125 -5.3125 C 1.328125 -5.019531 1.394531 -4.789062 1.53125 -4.625 C 1.664062 -4.46875 1.882812 -4.335938 2.1875 -4.234375 C 2.488281 -4.128906 2.867188 -4.023438 3.328125 -3.921875 C 3.847656 -3.816406 4.289062 -3.6875 4.65625 -3.53125 C 5.03125 -3.382812 5.320312 -3.179688 5.53125 -2.921875 C 5.738281 -2.671875 5.84375 -2.328125 5.84375 -1.890625 C 5.84375 -1.554688 5.773438 -1.265625 5.640625 -1.015625 C 5.515625 -0.773438 5.332031 -0.570312 5.09375 -0.40625 C 4.863281 -0.25 4.585938 -0.128906 4.265625 -0.046875 C 3.953125 0.0234375 3.609375 0.0625 3.234375 0.0625 C 2.859375 0.0625 2.5 0.0234375 2.15625 -0.046875 C 1.8125 -0.128906 1.484375 -0.242188 1.171875 -0.390625 C 0.867188 -0.546875 0.585938 -0.742188 0.328125 -0.984375 L 0.6875 -1.5625 C 0.8125 -1.425781 0.960938 -1.300781 1.140625 -1.1875 C 1.328125 -1.070312 1.53125 -0.960938 1.75 -0.859375 C 1.96875 -0.765625 2.203125 -0.691406 2.453125 -0.640625 C 2.710938 -0.597656 2.976562 -0.578125 3.25 -0.578125 C 3.820312 -0.578125 4.269531 -0.679688 4.59375 -0.890625 C 4.914062 -1.097656 5.078125 -1.410156 5.078125 -1.828125 C 5.078125 -2.117188 4.992188 -2.351562 4.828125 -2.53125 C 4.671875 -2.71875 4.425781 -2.867188 4.09375 -2.984375 C 3.769531 -3.097656 3.375 -3.210938 2.90625 -3.328125 C 2.40625 -3.441406 1.976562 -3.566406 1.625 -3.703125 C 1.28125 -3.847656 1.019531 -4.035156 0.84375 -4.265625 C 0.675781 -4.503906 0.59375 -4.816406 0.59375 -5.203125 C 0.59375 -5.648438 0.703125 -6.03125 0.921875 -6.34375 C 1.140625 -6.65625 1.441406 -6.890625 1.828125 -7.046875 C 2.222656 -7.203125 2.671875 -7.28125 3.171875 -7.28125 C 3.484375 -7.28125 3.773438 -7.25 4.046875 -7.1875 C 4.328125 -7.125 4.582031 -7.03125 4.8125 -6.90625 C 5.050781 -6.78125 5.273438 -6.628906 5.484375 -6.453125 Z M 3.421875 -8.375 L 2.96875 -8.546875 L 3.5625 -9.5 L 4.296875 -9.5 Z M 3.421875 -8.375 "/></g></g></g><g fill="#003882" fill-opacity="1"><g transform="translate(100.28796, 131.328503)"><g><path d="M 0.421875 -3.671875 C 0.421875 -4.109375 0.5 -4.539062 0.65625 -4.96875 C 0.8125 -5.394531 1.035156 -5.78125 1.328125 -6.125 C 1.617188 -6.476562 1.976562 -6.757812 2.40625 -6.96875 C 2.832031 -7.175781 3.316406 -7.28125 3.859375 -7.28125 C 4.503906 -7.28125 5.054688 -7.128906 5.515625 -6.828125 C 5.972656 -6.535156 6.3125 -6.15625 6.53125 -5.6875 L 5.96875 -5.34375 C 5.8125 -5.664062 5.613281 -5.921875 5.375 -6.109375 C 5.132812 -6.296875 4.878906 -6.425781 4.609375 -6.5 C 4.347656 -6.582031 4.082031 -6.625 3.8125 -6.625 C 3.382812 -6.625 3.003906 -6.535156 2.671875 -6.359375 C 2.335938 -6.191406 2.054688 -5.960938 1.828125 -5.671875 C 1.597656 -5.390625 1.425781 -5.066406 1.3125 -4.703125 C 1.195312 -4.347656 1.140625 -3.988281 1.140625 -3.625 C 1.140625 -3.226562 1.207031 -2.84375 1.34375 -2.46875 C 1.476562 -2.101562 1.664062 -1.78125 1.90625 -1.5 C 2.15625 -1.21875 2.441406 -0.992188 2.765625 -0.828125 C 3.097656 -0.660156 3.457031 -0.578125 3.84375 -0.578125 C 4.125 -0.578125 4.40625 -0.625 4.6875 -0.71875 C 4.96875 -0.8125 5.234375 -0.957031 5.484375 -1.15625 C 5.734375 -1.351562 5.929688 -1.609375 6.078125 -1.921875 L 6.671875 -1.625 C 6.523438 -1.257812 6.296875 -0.953125 5.984375 -0.703125 C 5.671875 -0.453125 5.320312 -0.257812 4.9375 -0.125 C 4.550781 0 4.175781 0.0625 3.8125 0.0625 C 3.3125 0.0625 2.851562 -0.0390625 2.4375 -0.25 C 2.03125 -0.46875 1.675781 -0.753906 1.375 -1.109375 C 1.070312 -1.472656 0.835938 -1.875 0.671875 -2.3125 C 0.503906 -2.757812 0.421875 -3.210938 0.421875 -3.671875 Z M 0.421875 -3.671875 "/></g></g></g><g fill="#003882" fill-opacity="1"><g transform="translate(108.078183, 131.328503)"><g><path d="M 0.90625 0 L 0.90625 -7.234375 L 1.625 -7.234375 L 1.625 0 Z M 0.90625 0 "/></g></g></g><g fill="#003882" fill-opacity="1"><g transform="translate(111.408851, 131.328503)"><g/></g></g><g fill="#003882" fill-opacity="1"><g transform="translate(114.81079, 131.328503)"><g><path d="M 0.90625 0 L 0.90625 -7.234375 L 3.359375 -7.234375 C 4.128906 -7.234375 4.769531 -7.070312 5.28125 -6.75 C 5.789062 -6.425781 6.175781 -5.988281 6.4375 -5.4375 C 6.695312 -4.894531 6.828125 -4.289062 6.828125 -3.625 C 6.828125 -2.894531 6.6875 -2.253906 6.40625 -1.703125 C 6.125 -1.160156 5.722656 -0.738281 5.203125 -0.4375 C 4.679688 -0.144531 4.066406 0 3.359375 0 Z M 6.109375 -3.625 C 6.109375 -4.207031 6 -4.722656 5.78125 -5.171875 C 5.570312 -5.617188 5.265625 -5.96875 4.859375 -6.21875 C 4.453125 -6.46875 3.953125 -6.59375 3.359375 -6.59375 L 1.625 -6.59375 L 1.625 -0.625 L 3.359375 -0.625 C 3.960938 -0.625 4.46875 -0.753906 4.875 -1.015625 C 5.28125 -1.285156 5.585938 -1.644531 5.796875 -2.09375 C 6.003906 -2.550781 6.109375 -3.0625 6.109375 -3.625 Z M 6.109375 -3.625 "/></g></g></g><g fill="#003882" fill-opacity="1"><g transform="translate(122.896291, 131.328503)"><g><path d="M 0.90625 0 L 0.90625 -7.234375 L 1.625 -7.234375 L 1.625 -0.625 L 5.796875 -0.625 L 5.796875 0 Z M 0.90625 0 "/></g></g></g><g fill="#003882" fill-opacity="1"><g transform="translate(129.637809, 131.328503)"><g><path d="M 3.140625 -7.234375 L 3.75 -7.234375 L 6.75 0 L 6 0 L 5.0625 -2.265625 L 1.8125 -2.265625 L 0.890625 0 L 0.125 0 Z M 4.90625 -2.828125 L 3.4375 -6.390625 L 1.96875 -2.828125 Z M 4.90625 -2.828125 "/></g></g></g><g fill="#003882" fill-opacity="1"><g transform="translate(137.326224, 131.328503)"><g/></g></g><g fill="#003882" fill-opacity="1"><g transform="translate(140.728164, 131.328503)"><g><path d="M 6.34375 -1.859375 C 6.34375 -1.503906 6.25 -1.1875 6.0625 -0.90625 C 5.882812 -0.625 5.640625 -0.398438 5.328125 -0.234375 C 5.023438 -0.078125 4.6875 0 4.3125 0 L 0.90625 0 L 0.90625 -7.234375 L 4.390625 -7.234375 C 4.734375 -7.234375 5.023438 -7.140625 5.265625 -6.953125 C 5.515625 -6.773438 5.707031 -6.546875 5.84375 -6.265625 C 5.976562 -5.984375 6.046875 -5.691406 6.046875 -5.390625 C 6.046875 -5.023438 5.953125 -4.691406 5.765625 -4.390625 C 5.578125 -4.085938 5.320312 -3.859375 5 -3.703125 C 5.414062 -3.585938 5.742188 -3.363281 5.984375 -3.03125 C 6.222656 -2.695312 6.34375 -2.304688 6.34375 -1.859375 Z M 5.640625 -1.984375 C 5.640625 -2.234375 5.582031 -2.457031 5.46875 -2.65625 C 5.363281 -2.863281 5.21875 -3.03125 5.03125 -3.15625 C 4.84375 -3.289062 4.628906 -3.359375 4.390625 -3.359375 L 1.625 -3.359375 L 1.625 -0.625 L 4.3125 -0.625 C 4.5625 -0.625 4.785156 -0.6875 4.984375 -0.8125 C 5.179688 -0.945312 5.335938 -1.113281 5.453125 -1.3125 C 5.578125 -1.519531 5.640625 -1.742188 5.640625 -1.984375 Z M 1.625 -6.609375 L 1.625 -3.9375 L 4.109375 -3.9375 C 4.347656 -3.9375 4.554688 -4 4.734375 -4.125 C 4.921875 -4.25 5.066406 -4.414062 5.171875 -4.625 C 5.285156 -4.832031 5.34375 -5.050781 5.34375 -5.28125 C 5.34375 -5.519531 5.289062 -5.738281 5.1875 -5.9375 C 5.082031 -6.144531 4.941406 -6.304688 4.765625 -6.421875 C 4.585938 -6.546875 4.390625 -6.609375 4.171875 -6.609375 Z M 1.625 -6.609375 "/></g></g></g><g fill="#003882" fill-opacity="1"><g transform="translate(148.314765, 131.328503)"><g><path d="M 0.90625 0 L 0.90625 -7.234375 L 1.625 -7.234375 L 1.625 0 Z M 0.90625 0 "/></g></g></g><g fill="#003882" fill-opacity="1"><g transform="translate(151.645438, 131.328503)"><g><path d="M 0.3125 -0.5625 L 5.234375 -6.59375 L 0.390625 -6.59375 L 0.390625 -7.234375 L 6.0625 -7.234375 L 6.0625 -6.671875 L 1.203125 -0.625 L 6.046875 -0.625 L 6.046875 0 L 0.3125 0 Z M 0.3125 -0.5625 "/></g></g></g><g fill="#003882" fill-opacity="1"><g transform="translate(158.855319, 131.328503)"><g><path d="M 1.625 -5.921875 L 1.625 0 L 0.90625 0 L 0.90625 -7.234375 L 1.5 -7.234375 L 6.25 -1.203125 L 6.25 -7.21875 L 6.953125 -7.21875 L 6.953125 0 L 6.296875 0 Z M 1.625 -5.921875 "/></g></g></g><g fill="#003882" fill-opacity="1"><g transform="translate(167.521179, 131.328503)"><g><path d="M 5.765625 -0.625 L 5.765625 0 L 0.90625 0 L 0.90625 -7.234375 L 5.671875 -7.234375 L 5.671875 -6.59375 L 1.625 -6.59375 L 1.625 -4 L 5.15625 -4 L 5.15625 -3.390625 L 1.625 -3.390625 L 1.625 -0.625 Z M 5.765625 -0.625 "/></g></g></g><g fill="#003882" fill-opacity="1"><g transform="translate(174.527421, 131.328503)"><g><path d="M 5.140625 -5.875 C 5.035156 -5.988281 4.914062 -6.09375 4.78125 -6.1875 C 4.644531 -6.28125 4.488281 -6.359375 4.3125 -6.421875 C 4.144531 -6.492188 3.960938 -6.550781 3.765625 -6.59375 C 3.578125 -6.632812 3.375 -6.65625 3.15625 -6.65625 C 2.519531 -6.65625 2.054688 -6.53125 1.765625 -6.28125 C 1.472656 -6.039062 1.328125 -5.71875 1.328125 -5.3125 C 1.328125 -5.019531 1.394531 -4.789062 1.53125 -4.625 C 1.664062 -4.46875 1.882812 -4.335938 2.1875 -4.234375 C 2.488281 -4.128906 2.867188 -4.023438 3.328125 -3.921875 C 3.847656 -3.816406 4.289062 -3.6875 4.65625 -3.53125 C 5.03125 -3.382812 5.320312 -3.179688 5.53125 -2.921875 C 5.738281 -2.671875 5.84375 -2.328125 5.84375 -1.890625 C 5.84375 -1.554688 5.773438 -1.265625 5.640625 -1.015625 C 5.515625 -0.773438 5.332031 -0.570312 5.09375 -0.40625 C 4.863281 -0.25 4.585938 -0.128906 4.265625 -0.046875 C 3.953125 0.0234375 3.609375 0.0625 3.234375 0.0625 C 2.859375 0.0625 2.5 0.0234375 2.15625 -0.046875 C 1.8125 -0.128906 1.484375 -0.242188 1.171875 -0.390625 C 0.867188 -0.546875 0.585938 -0.742188 0.328125 -0.984375 L 0.6875 -1.5625 C 0.8125 -1.425781 0.960938 -1.300781 1.140625 -1.1875 C 1.328125 -1.070312 1.53125 -0.960938 1.75 -0.859375 C 1.96875 -0.765625 2.203125 -0.691406 2.453125 -0.640625 C 2.710938 -0.597656 2.976562 -0.578125 3.25 -0.578125 C 3.820312 -0.578125 4.269531 -0.679688 4.59375 -0.890625 C 4.914062 -1.097656 5.078125 -1.410156 5.078125 -1.828125 C 5.078125 -2.117188 4.992188 -2.351562 4.828125 -2.53125 C 4.671875 -2.71875 4.425781 -2.867188 4.09375 -2.984375 C 3.769531 -3.097656 3.375 -3.210938 2.90625 -3.328125 C 2.40625 -3.441406 1.976562 -3.566406 1.625 -3.703125 C 1.28125 -3.847656 1.019531 -4.035156 0.84375 -4.265625 C 0.675781 -4.503906 0.59375 -4.816406 0.59375 -5.203125 C 0.59375 -5.648438 0.703125 -6.03125 0.921875 -6.34375 C 1.140625 -6.65625 1.441406 -6.890625 1.828125 -7.046875 C 2.222656 -7.203125 2.671875 -7.28125 3.171875 -7.28125 C 3.484375 -7.28125 3.773438 -7.25 4.046875 -7.1875 C 4.328125 -7.125 4.582031 -7.03125 4.8125 -6.90625 C 5.050781 -6.78125 5.273438 -6.628906 5.484375 -6.453125 Z M 5.140625 -5.875 "/></g></g></g><g fill="#003882" fill-opacity="1"><g transform="translate(181.513309, 131.328503)"><g><path d="M 3.84375 0.046875 C 3.28125 0.046875 2.800781 -0.0507812 2.40625 -0.25 C 2.007812 -0.457031 1.695312 -0.734375 1.46875 -1.078125 C 1.238281 -1.421875 1.070312 -1.804688 0.96875 -2.234375 C 0.863281 -2.671875 0.8125 -3.125 0.8125 -3.59375 L 0.8125 -7.234375 L 1.5 -7.234375 L 1.5 -3.59375 C 1.5 -3.21875 1.535156 -2.847656 1.609375 -2.484375 C 1.691406 -2.128906 1.820312 -1.804688 2 -1.515625 C 2.175781 -1.234375 2.414062 -1.007812 2.71875 -0.84375 C 3.019531 -0.675781 3.394531 -0.59375 3.84375 -0.59375 C 4.300781 -0.59375 4.679688 -0.675781 4.984375 -0.84375 C 5.285156 -1.019531 5.519531 -1.25 5.6875 -1.53125 C 5.863281 -1.820312 5.988281 -2.144531 6.0625 -2.5 C 6.144531 -2.851562 6.1875 -3.21875 6.1875 -3.59375 L 6.1875 -7.234375 L 6.890625 -7.234375 L 6.890625 -3.59375 C 6.890625 -3.101562 6.835938 -2.632812 6.734375 -2.1875 C 6.628906 -1.75 6.453125 -1.363281 6.203125 -1.03125 C 5.960938 -0.707031 5.648438 -0.445312 5.265625 -0.25 C 4.878906 -0.0507812 4.40625 0.046875 3.84375 0.046875 Z M 3.84375 0.046875 "/></g></g></g></svg>