<?xml version="1.0" standalone="no"?>
<!DOCTYPE svg PUBLIC "-//W3C//DTD SVG 20010904//EN"
 "http://www.w3.org/TR/2001/REC-SVG-20010904/DTD/svg10.dtd">
<svg version="1.0" xmlns="http://www.w3.org/2000/svg"
 width="2000.000000pt" height="1000.000000pt" viewBox="0 250 2000.000000 1000.000000"
 preserveAspectRatio="xMidYMid meet">

<g transform="translate(0.000000,1500.000000) scale(0.100000,-0.100000)"
fill="#17488d" stroke="none">
<path d="M2510 8645 l0 -865 323 0 c345 0 414 7 506 52 158 76 261 313 233
537 -19 160 -79 265 -193 344 l-56 39 52 49 c90 85 128 218 107 370 -20 136
-69 219 -164 276 -96 58 -137 63 -490 63 l-318 0 0 -865z m577 735 c95 -11
146 -33 195 -88 48 -53 62 -101 62 -202 -1 -132 -49 -215 -153 -263 -42 -19
-68 -22 -298 -25 l-253 -4 0 290 c0 159 3 292 7 295 10 10 346 8 440 -3z m153
-741 c121 -57 180 -154 188 -305 12 -229 -61 -358 -228 -408 -43 -13 -105 -16
-307 -16 l-253 0 0 381 0 380 273 -3 c269 -3 273 -3 327 -29z"/>
<path d="M7860 9496 c-300 -53 -554 -188 -761 -403 -176 -184 -282 -376 -346
-627 -35 -139 -43 -387 -19 -538 82 -496 436 -914 911 -1073 273 -92 596 -92
870 0 344 115 623 359 788 690 94 188 138 379 138 600 1 167 -18 288 -67 435
-70 210 -183 388 -348 548 -189 183 -406 300 -666 357 -101 23 -398 29 -500
11z m255 -364 l260 -217 5 -219 5 -218 185 -114 c102 -63 191 -122 198 -131 9
-13 12 -96 12 -335 l0 -318 83 0 c59 0 89 -5 105 -16 27 -19 29 -60 3 -74 -13
-7 -311 -10 -895 -10 -782 0 -876 2 -890 16 -22 22 -20 50 6 68 16 11 46 16
105 16 l83 0 0 218 c0 159 3 223 13 234 6 9 91 71 187 138 96 67 183 129 193
138 16 14 17 52 17 517 0 527 0 525 45 525 11 0 128 -91 280 -218z m859 -1728
c9 -8 16 -24 16 -34 0 -10 -7 -26 -16 -34 -14 -14 -108 -16 -891 -16 -802 0
-878 1 -895 17 -22 20 -23 46 -2 67 14 14 109 16 894 16 785 0 880 -2 894 -16z"/>
<path d="M7880 8390 l0 -810 200 0 200 0 0 648 0 647 -187 155 c-102 85 -192
159 -200 163 -11 7 -13 -127 -13 -803z m160 -90 l0 -670 -45 0 -45 0 0 670 0
670 45 0 45 0 0 -670z m170 -65 l0 -605 -45 0 -45 0 0 598 c0 329 3 602 7 605
3 4 24 7 45 7 l38 0 0 -605z"/>
<path d="M8380 7975 l0 -395 150 0 150 0 0 303 0 303 -137 84 c-75 47 -142 89
-150 93 -11 7 -13 -59 -13 -388z m130 -50 l0 -295 -45 0 -45 0 0 295 0 295 45
0 45 0 0 -295z m130 -45 l0 -250 -45 0 -45 0 0 250 0 250 45 0 45 0 0 -250z"/>
<path d="M7627 8088 l-147 -102 0 -203 0 -203 150 0 150 0 0 305 c0 168 -1
305 -3 305 -2 0 -69 -46 -150 -102z m113 -248 l0 -210 -45 0 -45 0 0 210 0
210 45 0 45 0 0 -210z m-130 -55 l0 -155 -45 0 -45 0 0 155 0 155 45 0 45 0 0
-155z"/>
<path d="M15135 9285 c-33 -32 -33 -75 1 -109 34 -34 77 -34 109 -1 31 30 32
73 4 109 -28 35 -80 36 -114 1z"/>
<path d="M16842 9287 c-30 -32 -29 -81 3 -112 33 -34 70 -32 107 5 25 26 29
36 24 63 -12 65 -91 90 -134 44z"/>
<path d="M17355 9285 c-14 -13 -25 -36 -25 -50 0 -35 50 -85 85 -85 38 0 75
41 75 84 0 71 -84 103 -135 51z"/>
<path d="M4063 9026 c-132 -33 -240 -121 -285 -234 -22 -55 -23 -69 -26 -395
-2 -221 1 -356 8 -391 22 -105 92 -181 209 -228 76 -30 269 -32 381 -4 87 22
220 80 220 96 0 9 -36 88 -45 98 -2 2 -25 -8 -52 -21 -99 -51 -190 -72 -303
-71 -117 0 -154 12 -216 66 -20 18 -43 48 -51 67 -13 30 -32 250 -22 252 2 0
173 11 379 22 l375 22 0 210 c0 176 -3 219 -18 265 -36 108 -114 188 -226 231
-70 27 -248 36 -328 15z m270 -126 c71 -27 116 -66 143 -124 22 -46 24 -64 24
-198 0 -145 0 -148 -22 -152 -24 -5 -481 -26 -555 -26 l-43 0 0 103 c0 128 14
227 39 276 65 127 253 182 414 121z"/>
<path d="M4960 8960 l0 -60 325 0 c179 0 325 -3 325 -6 0 -4 -153 -229 -340
-501 l-340 -495 0 -59 0 -59 455 0 455 0 0 60 0 60 -365 0 c-212 0 -365 4
-365 9 0 5 153 230 340 500 l340 491 0 60 0 60 -415 0 -415 0 0 -60z"/>
<path d="M11837 8810 c-66 -11 -136 -39 -184 -76 l-33 -25 0 40 0 41 -65 0
-65 0 0 -620 0 -621 68 3 67 3 5 518 5 519 37 33 c50 46 129 68 242 67 50 -1
105 -5 123 -11 31 -9 32 -9 47 37 25 71 22 79 -26 86 -92 12 -165 14 -221 6z"/>
<path d="M12572 8810 c-164 -35 -281 -155 -318 -329 -17 -81 -19 -498 -3 -586
24 -132 112 -261 211 -311 142 -72 355 -70 491 3 93 51 172 171 197 298 18 95
9 575 -13 641 -40 122 -132 221 -247 265 -62 24 -243 35 -318 19z m280 -143
c97 -44 150 -121 168 -244 12 -88 13 -431 0 -507 -18 -110 -76 -193 -169 -238
-65 -32 -224 -33 -293 -1 -68 31 -131 99 -157 168 -21 56 -22 71 -19 344 3
274 4 288 26 336 39 85 114 146 203 165 72 15 182 5 241 -23z"/>
<path d="M10643 8789 c-35 -11 -93 -40 -129 -65 l-67 -46 5 56 5 56 -69 0 -68
0 0 -876 0 -876 24 6 c13 3 45 15 70 26 l46 19 0 281 0 281 43 -34 c82 -67
153 -88 296 -88 208 0 356 91 423 258 21 55 23 74 26 341 4 307 -1 351 -47
449 -74 155 -210 234 -404 232 -63 0 -112 -6 -154 -20z m253 -114 c76 -22 141
-70 174 -128 43 -76 52 -153 48 -429 -3 -230 -4 -246 -27 -295 -27 -61 -84
-116 -150 -147 -38 -17 -64 -21 -156 -21 -100 0 -115 3 -167 28 -32 16 -73 47
-93 70 -61 71 -67 109 -63 424 3 266 4 280 26 328 68 148 241 220 408 170z"/>
<path d="M13220 8780 c0 -6 81 -277 181 -603 99 -326 182 -600 185 -609 5 -16
18 -18 99 -18 88 0 93 1 99 23 3 12 58 229 121 482 64 253 119 469 123 479 6
14 46 -128 133 -480 l125 -499 94 0 95 0 68 220 c37 121 123 399 191 618 l123
397 -71 0 -72 0 -165 -544 c-90 -300 -167 -539 -170 -533 -3 7 -66 252 -139
545 l-133 533 -70 -3 -71 -3 -137 -539 c-76 -296 -140 -540 -142 -542 -2 -2
-77 242 -167 541 l-163 545 -68 0 c-41 0 -69 -4 -69 -10z"/>
<path d="M15120 8170 l0 -621 68 3 67 3 3 618 2 617 -70 0 -70 0 0 -620z"/>
<path d="M15690 8730 l0 -60 328 -2 328 -3 -338 -490 -337 -490 -1 -67 0 -68
450 0 450 0 0 65 0 65 -365 0 c-201 0 -365 2 -365 4 0 3 153 225 340 495 l340
490 0 60 0 61 -415 0 -415 0 0 -60z"/>
<path d="M16687 8731 l26 -59 58 -7 59 -7 0 -638 c0 -422 -4 -656 -11 -690
-16 -75 -64 -139 -126 -170 -54 -27 -53 -22 -37 -99 5 -22 8 -23 54 -18 111
13 197 93 234 217 14 47 16 147 16 792 l0 738 -149 0 -150 0 26 -59z"/>
<path d="M17342 8173 l3 -618 68 -3 67 -3 0 621 0 620 -70 0 -70 0 2 -617z"/>
<path d="M9772 6303 c-23 -31 -40 -58 -38 -61 5 -4 166 107 166 115 0 1 -19 3
-42 3 -40 -1 -46 -4 -86 -57z"/>
<path d="M2527 6053 c-4 -76 -10 -231 -13 -345 l-7 -208 33 0 32 0 -6 93 c-3
50 -9 180 -12 287 -6 165 -5 193 7 183 8 -7 118 -138 244 -292 127 -154 233
-280 236 -280 8 -1 17 159 25 447 l7 232 -33 0 -32 0 6 -62 c3 -35 8 -164 12
-288 5 -197 4 -223 -9 -210 -8 8 -112 134 -232 280 -120 146 -225 273 -235
283 -16 18 -17 12 -23 -120z"/>
<path d="M5767 6180 c-76 -13 -150 -55 -206 -115 -62 -69 -86 -133 -86 -236 0
-65 5 -85 33 -141 38 -77 92 -130 171 -167 50 -23 67 -26 171 -26 144 0 196
14 202 53 l4 28 -60 -30 c-49 -26 -73 -32 -141 -34 -105 -5 -166 19 -230 90
-58 65 -80 130 -79 238 1 107 28 181 87 241 60 60 114 82 208 82 67 1 86 -4
138 -29 64 -32 71 -32 71 -3 0 22 -40 36 -140 49 -84 11 -78 11 -143 0z"/>
<path d="M7279 6180 c-293 -50 -389 -433 -156 -619 67 -52 139 -74 237 -69 73
3 94 9 148 38 73 39 115 83 151 160 22 47 26 68 26 150 -1 85 -4 101 -30 153
-68 136 -223 213 -376 187z m171 -37 c51 -20 115 -88 141 -147 33 -77 37 -195
11 -283 -42 -137 -140 -208 -277 -201 -89 4 -154 40 -202 112 -45 66 -58 116
-57 221 0 77 4 99 28 150 29 65 63 105 113 136 62 39 165 44 243 12z"/>
<path d="M7906 6143 c-3 -27 -8 -154 -11 -283 -3 -129 -8 -263 -11 -297 l-6
-63 32 0 33 0 -7 253 c-4 138 -9 265 -13 281 -3 18 -1 27 6 25 6 -2 68 -89
138 -194 71 -104 135 -191 143 -193 10 -2 49 63 125 209 60 116 115 219 122
228 10 13 12 -45 13 -296 l0 -313 30 0 30 0 0 335 0 335 -34 0 -35 0 -111
-215 c-61 -118 -115 -215 -119 -215 -4 0 -74 99 -155 220 -81 121 -151 222
-156 225 -4 3 -11 -16 -14 -42z"/>
<path d="M9010 6176 c-77 -17 -128 -46 -181 -103 -61 -65 -89 -140 -89 -238 0
-138 70 -254 188 -312 51 -25 68 -28 157 -28 89 0 106 3 157 28 115 57 189
176 189 307 0 79 -6 110 -37 172 -67 133 -233 208 -384 174z m205 -45 c98 -54
146 -151 146 -297 0 -200 -105 -324 -277 -324 -105 0 -189 54 -242 155 -34 67
-43 217 -17 297 58 179 234 255 390 169z"/>
<path d="M9732 6179 c-86 -17 -132 -72 -132 -157 0 -70 28 -106 138 -178 173
-114 206 -166 168 -259 -36 -86 -179 -102 -280 -32 -23 16 -30 17 -37 6 -5 -8
-9 -19 -9 -26 0 -21 80 -37 181 -38 86 0 99 3 132 25 45 30 77 92 77 148 0 84
-32 127 -150 200 -145 89 -170 117 -170 186 0 99 147 147 245 80 33 -22 45
-18 45 16 0 22 -145 42 -208 29z"/>
<path d="M10411 6179 c-111 -19 -212 -95 -263 -198 -19 -38 -23 -62 -23 -146
0 -90 3 -105 28 -153 36 -68 94 -124 165 -159 53 -26 65 -28 177 -27 145 0
198 15 203 56 l3 27 -57 -31 c-46 -25 -73 -32 -135 -36 -138 -8 -231 44 -289
163 -22 44 -25 63 -25 160 0 123 15 170 75 239 86 97 241 119 373 51 l48 -25
-3 27 c-3 23 -10 29 -48 38 -69 18 -169 24 -229 14z"/>
<path d="M15147 6053 c-4 -76 -10 -231 -13 -345 l-7 -208 33 0 32 0 -6 93 c-3
50 -9 180 -12 287 -6 165 -5 193 7 183 8 -7 118 -138 244 -292 127 -154 233
-280 236 -280 8 -1 17 159 25 447 l7 232 -33 0 -32 0 6 -62 c3 -35 8 -164 12
-288 5 -197 4 -223 -9 -210 -8 8 -112 134 -232 280 -120 146 -225 273 -235
283 -16 18 -17 12 -23 -120z"/>
<path d="M16529 6181 c-53 -11 -105 -47 -124 -88 -21 -44 -16 -116 10 -157 11
-16 70 -62 132 -103 127 -84 163 -125 163 -188 0 -84 -56 -135 -149 -135 -57
0 -128 25 -163 57 -17 15 -18 14 -18 -14 0 -39 32 -52 147 -60 102 -7 160 12
200 64 28 36 42 117 29 168 -11 42 -73 102 -161 155 -99 60 -143 102 -151 147
-22 115 131 182 242 107 43 -30 44 -30 44 0 0 19 -8 27 -32 34 -48 15 -128 21
-169 13z"/>
<path d="M3310 5835 l0 -335 35 0 35 0 0 335 0 335 -35 0 -35 0 0 -335z"/>
<path d="M3630 5835 l0 -335 145 0 c141 0 145 1 145 21 0 20 -4 21 -47 15 -27
-3 -78 -9 -115 -13 l-68 -6 0 163 0 163 110 -6 c106 -6 110 -6 110 14 0 20 -3
20 -110 14 l-110 -8 0 145 c0 80 2 147 5 150 3 2 51 -1 107 -8 57 -7 106 -13
111 -14 4 0 7 9 7 20 0 19 -7 20 -145 20 l-145 0 0 -335z"/>
<path d="M4130 5835 l0 -335 30 0 30 0 0 325 0 325 63 0 c104 0 148 -39 149
-134 1 -89 -46 -146 -121 -146 -16 0 -33 -4 -36 -10 -4 -6 5 -10 20 -10 76 0
139 -69 176 -194 33 -110 76 -156 149 -156 l35 0 -32 20 c-42 25 -58 51 -88
141 -34 99 -65 144 -122 172 l-47 24 47 21 c65 29 89 70 84 144 -6 106 -72
147 -234 148 l-103 0 0 -335z"/>
<path d="M4742 5923 c3 -248 3 -248 30 -300 48 -91 123 -132 244 -133 115 0
186 35 225 113 22 42 32 162 41 470 l3 97 -33 0 c-33 0 -33 0 -28 -42 3 -24 8
-133 11 -244 7 -217 2 -248 -48 -303 -84 -92 -269 -79 -339 24 -40 57 -48 120
-48 356 l0 209 -31 0 -31 0 4 -247z"/>
<path d="M6250 5835 l0 -335 30 0 30 0 2 168 3 167 203 3 202 2 0 -170 0 -170
35 0 35 0 0 335 0 335 -35 0 -35 0 0 -155 0 -155 -202 2 -203 3 -3 153 -3 152
-29 0 -30 0 0 -335z"/>
<path d="M10900 5835 l0 -335 30 0 30 0 0 335 0 335 -30 0 -30 0 0 -335z"/>
<path d="M11470 5835 l0 -337 163 4 c156 3 164 5 227 34 126 60 183 145 188
284 6 150 -50 250 -176 312 -66 33 -68 33 -234 37 l-168 3 0 -337z m326 300
c64 -19 113 -60 149 -126 28 -51 30 -60 30 -169 0 -131 -15 -179 -76 -239 -59
-58 -109 -75 -241 -79 l-118 -4 0 316 0 316 103 0 c62 0 123 -6 153 -15z"/>
<path d="M12260 5835 l0 -335 140 0 c140 0 140 0 140 23 l0 23 -77 -12 c-43
-7 -93 -13 -110 -13 l-33 -1 0 325 0 325 -30 0 -30 0 0 -335z"/>
<path d="M12847 6078 c-170 -440 -217 -564 -217 -571 0 -4 14 -7 32 -5 23 2
33 9 39 28 4 14 27 85 50 158 l41 133 111 -3 110 -3 58 -153 c32 -85 60 -156
62 -159 3 -2 18 -3 35 -1 l29 3 -127 330 c-126 328 -127 330 -157 333 -30 3
-31 1 -66 -90z m98 -85 c26 -71 50 -134 53 -140 3 -10 -20 -13 -98 -13 -77 0
-101 3 -98 13 2 6 22 69 44 139 21 71 42 128 45 128 4 0 28 -57 54 -127z"/>
<path d="M13620 5835 l0 -337 128 4 c138 5 178 16 224 62 37 37 52 87 43 144
-9 60 -62 116 -128 134 l-47 12 47 26 c60 33 86 78 80 143 -5 55 -29 93 -78
122 -28 16 -56 21 -151 24 l-118 3 0 -337z m215 301 c43 -18 68 -66 68 -132 0
-97 -55 -144 -168 -144 l-55 0 0 145 0 145 60 0 c33 0 76 -6 95 -14z m49 -320
c44 -28 66 -74 66 -136 0 -37 -6 -66 -20 -87 -32 -53 -63 -66 -161 -71 l-89
-4 0 162 0 162 89 -4 c62 -3 97 -9 115 -22z"/>
<path d="M14220 5835 l0 -335 30 0 30 0 0 335 0 335 -30 0 -30 0 0 -335z"/>
<path d="M14470 6150 c0 -12 7 -20 17 -20 18 0 271 18 341 24 23 2 42 -1 42
-6 0 -5 -94 -148 -210 -319 -115 -171 -210 -315 -210 -320 0 -5 106 -9 255 -9
l255 0 0 25 c0 21 -4 25 -22 21 -37 -8 -383 -29 -397 -25 -7 3 73 130 199 316
115 172 210 317 210 323 0 7 -80 10 -240 10 -233 0 -240 -1 -240 -20z"/>
<path d="M15930 5835 l0 -335 150 0 c147 0 150 0 150 21 0 21 -3 21 -57 15
-32 -4 -84 -10 -115 -13 l-58 -6 0 163 0 163 105 -6 c102 -7 105 -6 105 14 0
20 -3 21 -105 14 l-105 -7 0 151 0 151 28 -5 c36 -6 181 -25 193 -25 5 0 9 9
9 20 0 19 -7 20 -150 20 l-150 0 0 -335z"/>
<path d="M16950 5942 c0 -256 9 -307 62 -368 49 -56 100 -77 200 -82 76 -4 92
-1 141 21 64 29 100 76 116 147 5 25 12 150 16 278 l7 232 -32 0 -32 0 6 -102
c4 -57 8 -173 9 -258 2 -140 0 -158 -18 -190 -34 -57 -92 -91 -167 -97 -106
-9 -176 26 -221 111 -21 39 -22 56 -25 289 l-4 247 -29 0 -29 0 0 -228z"/>
</g>
</svg>
